<svg width="100" height="80" viewBox="0 0 100 80" fill="none" xmlns="http://www.w3.org/2000/svg">
<path d="M4.89094 3.91804C7.55741 1.48429 11.1054 0 15 0H85C88.8946 0 92.4426 1.48429 95.1091 3.91804L50 33.9907L4.89094 3.91804Z" fill="#FAF570"/>
<path d="M0.162513 12.7843C0.0554584 13.5073 0 14.2472 0 15V65C0 73.2843 6.71573 80 15 80H85C93.2843 80 100 73.2843 100 65V15C100 14.2472 99.9445 13.5073 99.8375 12.7843L52.7735 44.1603C51.094 45.2799 48.906 45.2799 47.2265 44.1603L0.162513 12.7843Z" fill="#FAF570"/>
</svg>
