<svg width="102" height="100" viewBox="0 0 102 100" fill="none" xmlns="http://www.w3.org/2000/svg">
<path d="M51 0C44.3026 0 37.6707 1.3254 31.4831 3.90052C25.2955 6.47563 19.6733 10.25 14.9376 15.0082C5.3732 24.6179 0 37.6513 0 51.2414C0 73.89 14.637 93.1055 34.884 99.9206C37.434 100.331 38.25 98.7421 38.25 97.3586V88.6988C24.123 91.7733 21.114 81.8324 21.114 81.8324C18.768 75.8884 15.453 74.3 15.453 74.3C10.812 71.123 15.81 71.2255 15.81 71.2255C20.91 71.5842 23.613 76.5033 23.613 76.5033C28.05 84.292 35.547 81.9862 38.454 80.7564C38.913 77.4257 40.239 75.1711 41.667 73.89C30.345 72.609 18.462 68.2022 18.462 48.6793C18.462 42.9915 20.4 38.431 23.715 34.7929C23.205 33.5118 21.42 28.1827 24.225 21.2652C24.225 21.2652 28.509 19.8816 38.25 26.4918C42.279 25.3645 46.665 24.8008 51 24.8008C55.335 24.8008 59.721 25.3645 63.75 26.4918C73.491 19.8816 77.775 21.2652 77.775 21.2652C80.58 28.1827 78.795 33.5118 78.285 34.7929C81.6 38.431 83.538 42.9915 83.538 48.6793C83.538 68.2535 71.604 72.5578 60.231 73.8388C62.067 75.4273 63.75 78.553 63.75 83.3184V97.3586C63.75 98.7421 64.566 100.382 67.167 99.9206C87.414 93.0543 102 73.89 102 51.2414C102 44.5122 100.681 37.849 98.1179 31.6321C95.5549 25.4152 91.7982 19.7664 87.0624 15.0082C82.3267 10.25 76.7045 6.47563 70.5169 3.90052C64.3293 1.3254 57.6974 0 51 0V0Z" fill="#FAF570"/>
</svg>
