<svg width="100" height="100" viewBox="0 0 100 100" fill="none" xmlns="http://www.w3.org/2000/svg">
<path d="M50 33.3333C45.5797 33.3333 41.3405 35.0893 38.2149 38.2149C35.0893 41.3405 33.3333 45.5797 33.3333 50C33.3333 54.4203 35.0893 58.6595 38.2149 61.7851C41.3405 64.9107 45.5797 66.6667 50 66.6667C54.4203 66.6667 58.6595 64.9107 61.7851 61.7851C64.9107 58.6595 66.6667 54.4203 66.6667 50C66.6667 45.5797 64.9107 41.3405 61.7851 38.2149C58.6595 35.0893 54.4203 33.3333 50 33.3333Z" fill="#FAF570"/>
<path fill-rule="evenodd" clip-rule="evenodd" d="M30 0C22.0435 0 14.4129 3.16071 8.7868 8.7868C3.16071 14.4129 0 22.0435 0 30V70C0 77.9565 3.16071 85.5871 8.7868 91.2132C14.4129 96.8393 22.0435 100 30 100H70C77.9565 100 85.5871 96.8393 91.2132 91.2132C96.8393 85.5871 100 77.9565 100 70V30C100 22.0435 96.8393 14.4129 91.2132 8.7868C85.5871 3.16071 77.9565 0 70 0H30ZM26.6667 50C26.6667 43.8116 29.125 37.8767 33.5008 33.5008C37.8767 29.125 43.8116 26.6667 50 26.6667C56.1884 26.6667 62.1233 29.125 66.4992 33.5008C70.875 37.8767 73.3333 43.8116 73.3333 50C73.3333 56.1884 70.875 62.1233 66.4992 66.4992C62.1233 70.875 56.1884 73.3333 50 73.3333C43.8116 73.3333 37.8767 70.875 33.5008 66.4992C29.125 62.1233 26.6667 56.1884 26.6667 50ZM73.3333 26.6667H80V20H73.3333V26.6667Z" fill="#FAF570"/>
</svg>
