<svg width="100" height="102" viewBox="0 0 100 102" fill="none" xmlns="http://www.w3.org/2000/svg">
<path fill-rule="evenodd" clip-rule="evenodd" d="M0 10.2C0 7.49479 1.05357 4.90038 2.92893 2.98751C4.8043 1.07464 7.34784 0 10 0L90 0C92.6522 0 95.1957 1.07464 97.0711 2.98751C98.9464 4.90038 100 7.49479 100 10.2V91.8C100 94.5052 98.9464 97.0996 97.0711 99.0125C95.1957 100.925 92.6522 102 90 102H10C7.34784 102 4.8043 100.925 2.92893 99.0125C1.05357 97.0996 0 94.5052 0 91.8L0 10.2ZM33.3333 34H26.6667V27.2H33.3333V34ZM26.6667 74.8V40.8H33.3333V74.8H26.6667ZM56.6667 47.6C54.0145 47.6 51.471 48.6746 49.5956 50.5875C47.7202 52.5004 46.6667 55.0948 46.6667 57.8V74.8H40V40.8H46.6667V44.2C49.1428 42.3057 52.0872 41.1522 55.1699 40.8687C58.2526 40.5852 61.3518 41.1828 64.1202 42.5947C66.8887 44.0066 69.2169 46.177 70.8442 48.8626C72.4714 51.5482 73.3333 54.6429 73.3333 57.8V74.8H66.6667V57.8C66.6667 55.0948 65.6131 52.5004 63.7377 50.5875C61.8624 48.6746 59.3188 47.6 56.6667 47.6Z" fill="#FAF570"/>
</svg>
