<svg width="100" height="100" viewBox="0 0 100 100" fill="none" xmlns="http://www.w3.org/2000/svg">
<path fill-rule="evenodd" clip-rule="evenodd" d="M8.24758 7.16574C6.65779 8.75715 5.20009 10.7093 4.25758 12.4091C2.80546 14.9576 1.94724 17.7022 1.39883 20.5648C-2.92205 42.4853 2.56543 62.0945 20.6802 80.0788C32.5657 91.8788 41.5785 96.7278 53.919 98.498C60.8333 99.4898 67.8638 99.5746 74.8276 99.9714C77.9139 100.147 81.2136 99.4901 84.1638 98.6263C87.4797 97.4549 90.5071 95.5549 93.0423 93.0171C102.319 83.7307 102.319 68.6744 93.0423 59.388L92.2157 58.5987C83.2477 50.4334 69.5342 50.3588 60.4824 58.4149L53.6739 65.1273C52.417 66.3855 50.438 66.5559 48.9848 65.5312C45.9619 63.3994 37.9301 55.5389 35.9695 52.86C34.9037 51.4037 35.0584 49.3868 36.3339 48.1106C38.4929 45.9959 40.6757 43.903 42.8115 41.765C52.3561 32.2107 52.3561 16.7201 42.8115 7.16574C33.267 -2.38858 17.7921 -2.38858 8.24758 7.16574Z" fill="#FAF570"/>
</svg>
